<svg width="375" height="357" fill="none" xmlns="http://www.w3.org/2000/svg"><path d="M247.134 163.884c-24.667-16.702-55.745-19.663-83.136-7.915-27.39 11.747-46.668 36.305-51.565 65.687l-11.809 70.802c-1.96 11.745-.122 23.559 5.309 34.154 5.433 10.597 13.952 18.981 24.638 24.254 10.688 5.264 22.535 6.913 34.262 4.772 11.726-2.142 22.228-7.879 30.369-16.587l.544-.586c20.581-21.689 49.466-33.959 79.386-33.695 7.717.068 15.217-1.44 22.159-4.418a55.542 55.542 0 0 0 10.784-6.146c9.635-7.017 16.606-16.738 20.161-28.112 3.551-11.371 3.351-23.325-.582-34.569-3.932-11.244-11.223-20.716-21.086-27.397l-59.434-40.244Zm-160.76 68.861c8.853-8.611 13.245-20.597 12.364-33.748-.836-12.516-6.415-24.658-15.712-34.191-9.296-9.524-21.297-15.407-33.795-16.567-13.128-1.217-25.23 2.859-34.062 11.471-17.778 17.306-16.274 47.776 3.36 67.935 15.655 16.033 38.15 20.745 55.631 13.248a40.051 40.051 0 0 0 12.214-8.148Zm50.462-73.144c26.609-11.412 37.688-45.34 24.697-75.63-12.994-30.298-45.214-45.661-71.823-34.25-26.606 11.412-37.68 45.343-24.687 75.641 12.992 30.291 45.206 45.65 71.813 34.239Zm89.129-22.248.003-.001a42.82 42.82 0 0 0 13.287-3.324c19.405-8.323 32.264-30.545 30.179-55.328-1.199-14.267-7.134-27.35-16.711-36.837-10.022-9.934-22.786-14.79-35.94-13.675-13.158 1.115-24.929 8.052-33.149 19.53-7.853 10.964-11.514 24.86-10.31 39.124 2.534 30.094 26.149 52.753 52.641 50.511Zm98.876-49.997-.011-.004c-24.158-5.674-49.085 11.967-55.565 39.332-6.462 27.369 7.921 54.269 32.056 59.965 8.804 2.08 17.714 1.058 25.794-2.408 14.085-6.041 25.657-19.507 29.787-36.916 6.459-27.369-7.921-54.27-32.061-59.97v.001Z" fill="#E47537"/></svg>