<svg width="331" height="57" fill="none" xmlns="http://www.w3.org/2000/svg"><g clip-path="url(#a)"><path d="M38.15 26.647a13.836 13.836 0 0 0-11.696-6.391c-4.756 0-9.129 2.39-11.695 6.39l-6.186 9.642a8.721 8.721 0 0 0-1.37 5.344 8.724 8.724 0 0 0 2.088 5.107 8.737 8.737 0 0 0 4.725 2.855 8.738 8.738 0 0 0 5.498-.523l.117-.051a17.298 17.298 0 0 1 13.762.051 8.748 8.748 0 0 0 5.496.523 8.734 8.734 0 0 0 4.726-2.855 8.72 8.72 0 0 0 2.09-5.107 8.72 8.72 0 0 0-1.37-5.344l-6.186-9.641Zm-27.91-.013c1.84-.706 3.237-2.188 3.936-4.172.664-1.889.61-4.02-.154-6.003-.764-1.982-2.155-3.6-3.915-4.556-1.849-1.004-3.88-1.168-5.717-.46-3.696 1.42-5.392 5.983-3.78 10.175 1.287 3.336 4.29 5.443 7.325 5.443a6.39 6.39 0 0 0 2.304-.427ZM22.24 19.08c4.621 0 8.38-4.279 8.38-9.539C30.621 4.28 26.862 0 22.241 0c-4.62 0-8.378 4.28-8.378 9.541 0 5.26 3.758 9.54 8.378 9.54Zm14.472 2.344a6.838 6.838 0 0 0 2.159.348c3.37 0 6.653-2.45 7.906-6.217.722-2.167.674-4.46-.133-6.453-.846-2.088-2.412-3.603-4.412-4.267-2-.664-4.162-.387-6.09.78-1.841 1.113-3.252 2.921-3.973 5.089-1.521 4.573.517 9.382 4.543 10.72ZM54.36 20.31l-.001-.002c-3.186-2.352-7.952-1.332-10.624 2.274-2.67 3.607-2.252 8.458.93 10.811 1.16.859 2.531 1.27 3.934 1.27 2.446 0 4.99-1.248 6.691-3.541 2.67-3.608 2.252-8.458-.93-10.813Z" fill="#FDEEE3"/></g><path d="M305.539 26.474c-.342 0-.513-.18-.513-.538v-1.953c0-.341.171-.512.513-.512h2.541v-5.542c0-.244.033-.489.098-.733.081-.244.285-.431.611-.561l13.488-4.98a21.066 21.066 0 0 1 1.539-.513 4.06 4.06 0 0 1 1.075-.171c.114 0 .237.024.367.073a.892.892 0 0 1 .391.195c.13.098.236.236.317.415.082.163.123.367.123.61v11.207h4.398c.342 0 .513.17.513.512v1.953c0 .359-.171.538-.513.538h-4.398v9.838c0 1.156.187 1.97.562 2.442.391.472.985.708 1.783.708.18 0 .367-.016.562-.049.196-.049.375-.09.538-.122.179-.049.342-.09.489-.122a1.2 1.2 0 0 1 .366-.073c.179 0 .269.106.269.317v1.88c0 .325-.065.545-.196.66-.13.113-.244.186-.342.219-.619.26-1.352.52-2.199.781-.831.26-1.735.488-2.712.684a27.86 27.86 0 0 1-3.054.488c-1.075.13-2.151.195-3.226.195a35.87 35.87 0 0 1-4.325-.244c-1.319-.146-2.468-.496-3.445-1.05-.961-.553-1.719-1.375-2.272-2.466-.538-1.09-.807-2.571-.807-4.443v-9.643h-2.541ZM297.354 39.413c.439 0 .838-.057 1.197-.17.358-.131.676-.27.953-.416.293-.146.529-.276.708-.39.196-.13.342-.196.44-.196.147 0 .245.025.293.074a.988.988 0 0 1 .22.268l.856 1.318c.081.13.122.244.122.342a.363.363 0 0 1-.098.269c-.065.065-.13.122-.195.17-.538.375-1.198.782-1.98 1.221-.782.424-1.694.814-2.736 1.172-1.027.358-2.191.651-3.495.88-1.303.243-2.736.365-4.3.365-1.222 0-2.444-.097-3.665-.293a18.038 18.038 0 0 1-3.519-.927 13.869 13.869 0 0 1-3.103-1.66 10.859 10.859 0 0 1-2.517-2.515c-.7-.993-1.254-2.14-1.661-3.443-.408-1.318-.611-2.824-.611-4.516 0-1.66.203-3.142.611-4.444.407-1.318.961-2.473 1.661-3.466a10.857 10.857 0 0 1 2.517-2.515c.961-.7 1.995-1.261 3.103-1.685a17.007 17.007 0 0 1 3.519-.952 23.173 23.173 0 0 1 3.665-.293c2.036 0 3.926.228 5.669.684 1.759.456 3.282 1.204 4.569 2.246s2.297 2.409 3.03 4.102c.733 1.692 1.1 3.767 1.1 6.225v1.367c0 .293-.074.521-.22.684-.147.163-.391.244-.733.244h-10.116c.13 1.205.358 2.214.684 3.027.342.798.725 1.44 1.148 1.93.44.471.912.805 1.417 1 .505.195.994.293 1.467.293Zm2.883-9.253c0-1.302-.106-2.376-.318-3.223-.195-.862-.464-1.546-.806-2.05-.342-.521-.749-.887-1.222-1.099a3.387 3.387 0 0 0-1.442-.317c-.374 0-.781.073-1.221.22-.44.146-.856.455-1.246.927-.375.472-.701 1.148-.978 2.027-.26.878-.415 2.05-.464 3.515h7.697ZM244.77 21.86c0-.554.048-1.042.146-1.465.098-.44.285-.798.562-1.075.277-.276.66-.488 1.149-.634.488-.147 1.124-.22 1.905-.22h9.994c.733 0 1.36.073 1.882.22.537.146.92.398 1.148.756.212-.146.464-.3.758-.463a8.108 8.108 0 0 1 2.15-.855 5.434 5.434 0 0 1 1.271-.146c1.563 0 2.777.537 3.64 1.61.88 1.075 1.32 2.654 1.32 4.737v17.993c0 .277-.041.497-.122.66a.822.822 0 0 1-.269.341.816.816 0 0 1-.367.122 3.962 3.962 0 0 1-.439.025h-1.564c-.424 0-.701-.122-.831-.366a1.824 1.824 0 0 1-.171-.782V24.081c0-.928-.171-1.636-.513-2.124-.326-.488-.855-.732-1.589-.732-.374 0-.757.105-1.148.317a3.663 3.663 0 0 0-.904.635v17.87a6.66 6.66 0 0 1-.147 1.49 2.268 2.268 0 0 1-.562 1.074c-.277.277-.659.489-1.148.635-.489.147-1.124.22-1.906.22h-10.483c-.781 0-1.417-.073-1.905-.22-.489-.146-.872-.358-1.149-.635a2.124 2.124 0 0 1-.562-1.05 6.665 6.665 0 0 1-.146-1.489V21.86ZM223.463 43.466c-.88 0-1.768-.057-2.664-.171a16.003 16.003 0 0 1-2.541-.537 11.68 11.68 0 0 1-2.248-1.001 7.164 7.164 0 0 1-1.832-1.514 6.94 6.94 0 0 1-1.198-2.124c-.293-.814-.439-1.75-.439-2.807 0-1.416.268-2.63.806-3.638a7.464 7.464 0 0 1 2.15-2.515c.912-.667 1.955-1.18 3.128-1.538a16.927 16.927 0 0 1 3.641-.683v-1.685c0-.635-.082-1.14-.245-1.514-.163-.374-.374-.65-.635-.83a1.741 1.741 0 0 0-.831-.366 3.937 3.937 0 0 0-.855-.098 4.18 4.18 0 0 0-1.051.147c-.358.098-.708.22-1.05.366-.343.13-.668.277-.978.44-.309.162-.57.309-.782.439a6.521 6.521 0 0 1-.269.17.468.468 0 0 1-.244.074c-.147 0-.285-.106-.415-.317l-.831-1.319a.614.614 0 0 1-.122-.366.47.47 0 0 1 .146-.342c.114-.097.22-.179.318-.244.538-.374 1.222-.757 2.053-1.147.83-.39 1.759-.74 2.785-1.05a27.159 27.159 0 0 1 3.372-.757 23.357 23.357 0 0 1 3.739-.293c1.221 0 2.41.04 3.567.122 1.173.082 2.273.26 3.299.537 1.042.26 1.987.643 2.834 1.148a7.265 7.265 0 0 1 2.224 1.953c.635.814 1.124 1.815 1.466 3.003.342 1.188.513 2.612.513 4.272V40.17a6.41 6.41 0 0 1-.147 1.44 2.108 2.108 0 0 1-.562 1.026c-.277.276-.659.488-1.148.634-.489.13-1.124.196-1.906.196h-13.048Zm-1.197-13.428c-1.173 0-2.159.147-2.957.44-.798.292-1.442.683-1.93 1.171a4.238 4.238 0 0 0-1.051 1.71 6.201 6.201 0 0 0-.318 1.977c0 .684.106 1.335.318 1.953a3.931 3.931 0 0 0 1.051 1.587c.488.456 1.132.814 1.93 1.074.798.26 1.784.39 2.957.39V30.039ZM190.72 6.87c0-.554.049-1.043.147-1.466.098-.44.285-.797.562-1.074.277-.277.66-.488 1.148-.635.489-.146 1.124-.22 1.906-.22h10.703c.749 0 1.352.074 1.808.22.456.13.814.334 1.075.61.261.277.432.627.513 1.05.098.424.147.92.147 1.49V40.12c0 .553-.049 1.042-.147 1.465a2.39 2.39 0 0 1-.538 1.05c-.26.276-.627.488-1.099.634-.456.13-1.059.196-1.808.196h-10.654c-.782 0-1.417-.073-1.906-.22-.488-.146-.871-.358-1.148-.635a2.124 2.124 0 0 1-.562-1.05 6.66 6.66 0 0 1-.147-1.489V6.87ZM172.492 17.904c1.205 0 2.403.09 3.592.269 1.189.179 2.329.472 3.421.879 1.091.407 2.101.936 3.03 1.587a10.052 10.052 0 0 1 2.419 2.417c.684.96 1.221 2.083 1.612 3.369.391 1.27.587 2.734.587 4.394 0 2.051-.294 3.825-.88 5.323-.586 1.48-1.368 2.726-2.346 3.735a11.065 11.065 0 0 1-3.396 2.392c-1.287.57-2.639.969-4.056 1.197v6.64c0 .586-.049 1.09-.147 1.514a2.234 2.234 0 0 1-.537 1.05c-.245.293-.603.505-1.076.635-.456.146-1.05.22-1.783.22h-10.703c-.782 0-1.417-.074-1.906-.22-.488-.147-.871-.367-1.148-.66a2.124 2.124 0 0 1-.562-1.05 6.66 6.66 0 0 1-.147-1.489v-19.53c0-2.019.31-3.817.929-5.396.635-1.58 1.547-2.906 2.737-3.98 1.205-1.074 2.671-1.888 4.398-2.441 1.743-.57 3.73-.855 5.962-.855Zm11.191 12.89c0-1.252-.138-2.416-.415-3.49-.277-1.074-.709-2.027-1.295-2.857a6.909 6.909 0 0 0-2.248-2.026c-.896-.537-1.98-.879-3.25-1.026v18.946c1.27-.163 2.354-.513 3.25-1.05a7.052 7.052 0 0 0 2.248-2.075c.586-.846 1.018-1.815 1.295-2.906.277-1.09.415-2.262.415-3.515ZM129.267 26.474c-.343 0-.514-.18-.514-.538v-1.953c0-.341.171-.512.514-.512h2.541v-5.542c0-.244.032-.489.098-.733.081-.244.285-.431.61-.561l13.488-4.98a20.91 20.91 0 0 1 1.54-.513c.407-.114.765-.171 1.075-.171.114 0 .236.024.366.073a.886.886 0 0 1 .391.195c.131.098.237.236.318.415.081.163.122.367.122.61v11.207h4.398c.343 0 .514.17.514.512v1.953c0 .359-.171.538-.514.538h-4.398v9.838c0 1.156.188 1.97.562 2.442.391.472.986.708 1.784.708.179 0 .366-.016.562-.049.195-.049.375-.09.537-.122.18-.049.343-.09.489-.122a1.21 1.21 0 0 1 .367-.073c.179 0 .268.106.268.317v1.88c0 .325-.065.545-.195.66-.13.113-.244.186-.342.219-.619.26-1.352.52-2.199.781-.831.26-1.735.488-2.712.684-.962.211-1.98.374-3.055.488-1.075.13-2.15.195-3.225.195-1.548 0-2.989-.081-4.325-.244-1.32-.146-2.468-.496-3.445-1.05-.962-.553-1.719-1.375-2.273-2.466-.537-1.09-.806-2.571-.806-4.443v-9.643h-2.541ZM121.081 39.413c.44 0 .839-.057 1.197-.17.359-.131.676-.27.953-.416.294-.146.53-.276.709-.39.195-.13.342-.196.44-.196.146 0 .244.025.293.074.065.048.138.138.22.268l.855 1.318c.082.13.122.244.122.342a.363.363 0 0 1-.097.269 1.938 1.938 0 0 1-.196.17 24.45 24.45 0 0 1-1.979 1.221c-.782.424-1.694.814-2.737 1.172-1.026.358-2.191.651-3.494.88-1.303.243-2.737.365-4.301.365a23.18 23.18 0 0 1-3.665-.293 18.047 18.047 0 0 1-3.518-.927 13.898 13.898 0 0 1-3.104-1.66 10.836 10.836 0 0 1-2.516-2.515c-.7-.993-1.255-2.14-1.662-3.443-.407-1.318-.61-2.824-.61-4.516 0-1.66.203-3.142.61-4.444.407-1.318.961-2.473 1.662-3.466a10.834 10.834 0 0 1 2.516-2.515c.962-.7 1.996-1.261 3.104-1.685a17.015 17.015 0 0 1 3.518-.952 23.192 23.192 0 0 1 3.665-.293c2.037 0 3.926.228 5.669.684 1.76.456 3.283 1.204 4.57 2.246 1.287 1.042 2.297 2.409 3.03 4.102.733 1.692 1.099 3.767 1.099 6.225v1.367c0 .293-.073.521-.22.684-.146.163-.391.244-.733.244h-10.116c.13 1.205.359 2.214.684 3.027.342.798.725 1.44 1.149 1.93.44.471.912.805 1.417 1 .505.195.994.293 1.466.293Zm2.883-9.253c0-1.302-.106-2.376-.317-3.223-.196-.862-.465-1.546-.807-2.05-.342-.521-.749-.887-1.221-1.099a3.387 3.387 0 0 0-1.442-.317c-.375 0-.782.073-1.222.22-.44.146-.855.455-1.246.927-.375.472-.7 1.148-.977 2.027-.261.878-.416 2.05-.465 3.515h7.697ZM68.058 11.825c0-.57.048-1.066.146-1.49.098-.422.285-.772.562-1.049.277-.293.66-.513 1.149-.659.488-.147 1.124-.22 1.906-.22h10.898c1.124 0 2.24.073 3.347.22 1.108.13 2.167.358 3.177.684 1.026.325 1.97.748 2.834 1.27a8.457 8.457 0 0 1 2.272 1.952c.652.765 1.157 1.668 1.515 2.71.375 1.026.562 2.214.562 3.565 0 2.002-.277 3.694-.83 5.078-.538 1.367-1.271 2.498-2.2 3.393a9.509 9.509 0 0 1-3.25 2.051 18.704 18.704 0 0 1-3.86 1.026v9.155c0 .374-.033.79-.098 1.245a3.225 3.225 0 0 1-.489 1.294c-.26.39-.66.724-1.197 1-.537.278-1.278.416-2.223.416H71.82c-.782 0-1.418-.073-1.906-.22-.489-.146-.872-.358-1.149-.635a2.123 2.123 0 0 1-.562-1.05 6.68 6.68 0 0 1-.146-1.489V11.825Zm24.923 7.349c0-.977-.13-1.872-.39-2.686a6.015 6.015 0 0 0-1.198-2.173c-.538-.618-1.23-1.13-2.077-1.538-.847-.407-1.857-.683-3.03-.83v15.161c1.173-.179 2.183-.504 3.03-.976s1.54-1.058 2.077-1.758c.537-.7.936-1.49 1.197-2.368.26-.895.391-1.84.391-2.832Z" fill="#FDEEE3"/><defs><clipPath id="a"><path fill="#fff" d="M0 0h57.048v57H0z"/></clipPath></defs></svg>