<svg width="1440" height="795" fill="none" xmlns="http://www.w3.org/2000/svg"><g opacity=".3" clip-path="url(#a)" fill="#FDEEE3"><path d="M1 0h1442v1H1zM1 51h1442v1H1zM1 102h1442v1H1zM1 153h1442v1H1zM1 204h1442v1H1zM1 255h1442v1H1zM1 306h1442v1H1zM1 357h1442v1H1zM1 408h1442v1H1zM1 459h1442v1H1zM1 510h1442v1H1zM1 561h1442v1H1zM1 612h1442v1H1zM1 663h1442v1H1zM1 714h1442v1H1zM1 765h1442v1H1z"/></g><g opacity=".2" fill="#FDEEE3"><path d="M0 0h1.379v795H0zM51.379 0h1.379v795h-1.379zM102.759 0h1.379v795h-1.379zM154.138 0h1.379v795h-1.379zM205.517 0h1.379v795h-1.379zM256.896 0h1.379v795h-1.379zM308.276 0h1.379v795h-1.379zM359.655 0h1.379v795h-1.379zM411.035 0h1.379v795h-1.379zM462.414 0h1.379v795h-1.379zM513.793 0h1.379v795h-1.379zM565.172 0h1.379v795h-1.379zM616.552 0h1.379v795h-1.379zM667.931 0h1.379v795h-1.379zM719.311 0h1.379v795h-1.379zM770.69 0h1.379v795h-1.379zM822.069 0h1.379v795h-1.379zM873.448 0h1.379v795h-1.379zM924.828 0h1.379v795h-1.379zM976.207 0h1.379v795h-1.379zM1027.59 0h1.379v795h-1.379zM1078.97 0h1.379v795h-1.379zM1130.34 0h1.379v795h-1.379zM1181.72 0h1.379v795h-1.379zM1233.1 0h1.379v795h-1.379zM1284.48 0h1.379v795h-1.379zM1335.86 0h1.379v795h-1.379zM1387.24 0h1.379v795h-1.379z"/></g><defs><clipPath id="a"><path fill="#fff" transform="translate(.998)" d="M0 0h1439v795H0z"/></clipPath></defs></svg>