<svg width="810" height="215" fill="none" xmlns="http://www.w3.org/2000/svg"><path d="M742.003 191.249v5.356h43.791c1.875 0 2.946-1.004 2.946-2.678s-1.071-2.678-2.946-2.678h-43.791Zm43.791-17.409h-43.791v5.356h43.791c1.875 0 2.946-1.004 2.946-2.678s-1.071-2.678-2.946-2.678Zm7.365 34.818h-72.314v-46.871h72.314c9.843 0 16.74 4.687 16.74 13.392 0 4.553-2.143 7.968-5.825 10.044 3.682 2.075 5.825 5.49 5.825 10.043 0 8.705-6.897 13.392-16.74 13.392ZM628.451 208.658v-46.871h87.045v12.053h-65.887v5.356h65.887v12.053h-65.887v5.356h65.887v12.053h-87.045ZM529.321 208.658v-46.871h21.159v30.801h46.737v-30.801h21.158v30.801h5.357v21.427h-21.159v-5.357h-73.252ZM414.303 208.658v-46.871h28.256l26.047 32.14 26.046-32.14h29.328v46.871h-21.159v-27.52l-22.297 27.52h-23.837l-21.226-26.181v26.181h-21.158ZM408.936 161.787v46.871h-21.159v-26.783l-46.737 26.783h-21.159v-46.871h21.159v26.784l46.737-26.784h21.159ZM247.273 196.605h43.791c1.874 0 2.946-1.004 2.946-2.678s-1.072-2.678-2.946-2.678h-43.791v5.356Zm51.156 12.053h-72.315v-46.871h87.046v12.053h-65.887v5.356h51.156c9.843 0 16.739 6.027 16.739 14.731 0 8.705-6.896 14.731-16.739 14.731ZM194.263 178.527h-40.174c-3.683 0-6.696 3.013-6.696 6.696 0 3.682 3.013 6.695 6.696 6.695h40.174c3.683 0 6.696-3.013 6.696-6.695 0-3.683-3.013-6.696-6.696-6.696Zm-44.527-17.409h48.88c12.922 0 23.435 11.182 23.435 24.105s-10.513 24.105-23.435 24.105h-48.88c-10.847 0-20.02-7.902-22.632-18.079h-3.481v17.409h-21.159v-46.871h21.159v17.409h3.481c2.612-10.177 11.785-18.078 22.632-18.078ZM49.884 176.518l-26.047 32.14H0l37.965-46.871h23.837l37.965 46.871H75.93l-26.046-32.14ZM714.786 81.228h29.863l17.275 12.388 17.275-12.388h29.863l-32.206 23.101L810 128.099h-29.863l-18.213-13.057-18.213 13.057h-29.863l33.144-23.77-32.206-23.1ZM710.508 81.228V128.1H689.35v-26.783l-46.737 26.783h-21.159v-46.87h21.159v26.783l46.737-26.784h21.158ZM545.106 80.559h48.88c12.922 0 23.435 11.182 23.435 24.105s-10.513 24.105-23.435 24.105h-48.88c-12.923 0-23.435-11.182-23.435-24.105s10.512-24.105 23.435-24.105Zm44.527 17.409h-40.175c-3.682 0-6.695 3.013-6.695 6.696 0 3.682 3.013 6.696 6.695 6.696h40.175c3.683 0 6.696-3.014 6.696-6.696 0-3.683-3.013-6.696-6.696-6.696ZM451.089 110.69v5.357h43.791c1.875 0 2.946-1.005 2.946-2.679s-1.071-2.678-2.946-2.678h-43.791Zm43.791-17.41h-43.791v5.358h43.791c1.875 0 2.946-1.005 2.946-2.679s-1.071-2.678-2.946-2.678Zm7.365 34.819h-72.314v-46.87h72.314c9.843 0 16.74 4.686 16.74 13.391 0 4.553-2.143 7.968-5.826 10.044 3.683 2.075 5.826 5.49 5.826 10.043 0 8.705-6.897 13.392-16.74 13.392ZM369.39 128.099v-30.8h-33.881v-16.07h89.054v16.07h-34.014v30.8H369.39ZM231.714 102.655h43.79v-5.357h-43.79c-1.875 0-2.946 1.005-2.946 2.679s1.071 2.678 2.946 2.678Zm-5.357-21.427h70.306V128.1h-21.159v-9.374h-27.452l-13.593 9.374h-26.85l14.262-9.843c-8.972-2.075-14.262-10.177-14.262-18.28 0-9.373 7.03-18.748 18.748-18.748ZM155.683 95.96l-26.047 32.139h-23.837l37.965-46.87h23.837l37.965 46.87h-23.837l-26.046-32.14ZM34.617 103.392l-4.017 8.637h46v-14.73H44.125c-4.486 0-7.633 2.008-9.508 6.093Zm68.498 30.064H81.957v-5.357H21.159v5.357H0v-21.427h7.5l6.762-14.931c4.888-10.647 12.99-15.87 24.64-15.87H97.76v30.801h5.356v21.427ZM539.736 26.114h-43.79v5.356h43.79c1.875 0 2.947-1.004 2.947-2.678s-1.072-2.678-2.947-2.678Zm5.357 21.426h-70.306V.67h21.159v9.374h49.147c11.718 0 18.748 9.374 18.748 18.748s-7.03 18.748-18.748 18.748Zm42.585 0H566.52V.67h21.158v46.87ZM447.342 16.74h-43.79v5.356h43.79c1.875 0 2.946-1.004 2.946-2.678s-1.071-2.678-2.946-2.678Zm-43.79 30.8h-21.159V.67h70.306c11.718 0 18.748 9.374 18.748 18.748s-7.03 18.748-18.748 18.748h-49.147v9.374ZM329.812 15.4l-9.775 12.053h19.551L329.812 15.4ZM317.894.67h23.837l37.965 46.87h-23.837l-5.423-6.696h-41.247l-5.423 6.696h-23.837L317.894.67ZM212.682 30.131v5.357h43.791c1.875 0 2.946-1.005 2.946-2.679 0-1.673-1.071-2.678-2.946-2.678h-43.791Zm43.791-17.409h-43.791v5.357h43.791c1.875 0 2.946-1.005 2.946-2.679s-1.071-2.678-2.946-2.678Zm7.365 34.818h-72.315V.67h72.315c9.843 0 16.74 4.687 16.74 13.391 0 4.553-2.143 7.968-5.826 10.044 3.683 2.076 5.826 5.49 5.826 10.044 0 8.704-6.897 13.391-16.74 13.391ZM115.176 0h48.879c12.923 0 23.435 11.182 23.435 24.105S176.978 48.21 164.055 48.21h-48.879c-12.923 0-23.436-11.182-23.436-24.105S102.253 0 115.176 0Zm44.527 17.41h-40.175c-3.683 0-6.696 3.012-6.696 6.695 0 3.683 3.013 6.696 6.696 6.696h40.175c3.682 0 6.695-3.013 6.695-6.696s-3.013-6.696-6.695-6.696ZM33.88 47.54v-30.8H0V.67h89.054v16.07H55.04v30.8H33.881Z" fill="#FDEEE3"/></svg>